<svg width="201" height="201" viewBox="0 0 201 201" fill="none" xmlns="http://www.w3.org/2000/svg">
<rect width="100" height="100" transform="matrix(1 0 0 -1 100.36 200.683)" fill="#79C8C7"/>
<path fill-rule="evenodd" clip-rule="evenodd" d="M100.36 200.683C45.1311 200.683 0.359558 155.911 0.359558 100.683C0.359558 45.4541 45.1311 0.682617 100.36 0.682617C155.588 0.682617 200.36 45.4541 200.36 100.683C200.36 155.911 155.588 200.683 100.36 200.683ZM100.36 133.683C82.1342 133.683 67.3596 118.908 67.3596 100.683C67.3596 82.4572 82.1342 67.6826 100.36 67.6826C118.585 67.6826 133.36 82.4572 133.36 100.683C133.36 118.908 118.585 133.683 100.36 133.683Z" fill="#012F34"/>
<path fill-rule="evenodd" clip-rule="evenodd" d="M200.36 156.683H196.36V160.683H200.36V156.683ZM189.36 156.683H193.36V160.683H189.36V156.683ZM189.36 164.683H193.36V168.683H189.36V164.683ZM193.36 172.683H189.36V176.683H193.36V172.683ZM189.36 180.683H193.36V184.683H189.36V180.683ZM193.36 188.683H189.36V192.683H193.36V188.683ZM189.36 196.683H193.36V200.683H189.36V196.683ZM186.36 156.683H182.36V160.683H186.36V156.683ZM186.36 164.683H182.36V168.683H186.36V164.683ZM182.36 172.683H186.36V176.683H182.36V172.683ZM186.36 180.683H182.36V184.683H186.36V180.683ZM182.36 188.683H186.36V192.683H182.36V188.683ZM186.36 196.683H182.36V200.683H186.36V196.683ZM200.36 164.683H196.36V168.683H200.36V164.683ZM179.36 156.683H175.36V160.683H179.36V156.683ZM179.36 164.683H175.36V168.683H179.36V164.683ZM175.36 172.683H179.36V176.683H175.36V172.683ZM179.36 180.683H175.36V184.683H179.36V180.683ZM175.36 188.683H179.36V192.683H175.36V188.683ZM179.36 196.683H175.36V200.683H179.36V196.683ZM200.36 172.683H196.36V176.683H200.36V172.683ZM172.36 156.683H168.36V160.683H172.36V156.683ZM172.36 164.683H168.36V168.683H172.36V164.683ZM168.36 172.683H172.36V176.683H168.36V172.683ZM172.36 180.683H168.36V184.683H172.36V180.683ZM168.36 188.683H172.36V192.683H168.36V188.683ZM172.36 196.683H168.36V200.683H172.36V196.683ZM200.36 180.683H196.36V184.683H200.36V180.683ZM165.36 156.683H161.36V160.683H165.36V156.683ZM165.36 164.683H161.36V168.683H165.36V164.683ZM161.36 172.683H165.36V176.683H161.36V172.683ZM165.36 180.683H161.36V184.683H165.36V180.683ZM161.36 188.683H165.36V192.683H161.36V188.683ZM165.36 196.683H161.36V200.683H165.36V196.683ZM200.36 188.683H196.36V192.683H200.36V188.683ZM158.36 156.683H154.36V160.683H158.36V156.683ZM158.36 164.683H154.36V168.683H158.36V164.683ZM154.36 172.683H158.36V176.683H154.36V172.683ZM158.36 180.683H154.36V184.683H158.36V180.683ZM154.36 188.683H158.36V192.683H154.36V188.683ZM158.36 196.683H154.36V200.683H158.36V196.683ZM200.36 196.683H196.36V200.683H200.36V196.683ZM151.36 156.683H147.36V160.683H151.36V156.683ZM151.36 164.683H147.36V168.683H151.36V164.683ZM147.36 172.683H151.36V176.683H147.36V172.683ZM151.36 180.683H147.36V184.683H151.36V180.683ZM147.36 188.683H151.36V192.683H147.36V188.683ZM151.36 196.683H147.36V200.683H151.36V196.683Z" fill="#F67E7E"/>
</svg>
